<svg xmlns="http://www.w3.org/2000/svg" version="1.1" xmlns:xlink="http://www.w3.org/1999/xlink" xmlns:svgjs="http://svgjs.dev/svgjs" width="1000" height="1000" viewBox="0 0 1000 1000"><rect width="1000" height="1000" fill="#000000"></rect><g transform="matrix(0.7,0,0,0.7,149.57575757575756,431.05356055797836)"><svg viewBox="0 0 396 78" data-background-color="#ffffff" preserveAspectRatio="xMidYMid meet" height="196" width="1000" xmlns="http://www.w3.org/2000/svg" xmlns:xlink="http://www.w3.org/1999/xlink"><g id="tight-bounds" transform="matrix(1,0,0,1,0.2400000000000091,0.19695536791314794)"><svg viewBox="0 0 395.52 77.6060892641737" height="77.6060892641737" width="395.52"><g><svg viewBox="0 0 395.52 77.6060892641737" height="77.6060892641737" width="395.52"><g><svg viewBox="0 0 395.52 77.6060892641737" height="77.6060892641737" width="395.52"><g id="textblocktransform"><svg viewBox="0 0 395.52 77.6060892641737" height="77.6060892641737" width="395.52" id="textblock"><g><svg viewBox="0 0 395.52 77.6060892641737" height="77.6060892641737" width="395.52"><rect width="395.52" height="77.6060892641737" x="0" y="0" opacity="1" fill="#ffffff" data-fill-palette-color="tertiary"></rect><g transform="matrix(1,0,0,1,23.607599999999998,23.6076)"><svg width="348.3048" viewBox="5.050000190734863 -31.950000762939453 373.02001953125 32.54999923706055" height="30.3908892641737" data-palette-color="#ffffff"><path d="M5.05 0L5.05-31.4 10.65-31.4 21.45-9.7 21.05-9.7 31.85-31.4 37.3-31.4 37.3 0 33.35 0 33.35-27.35 34.05-27.35 22.55-3.95 19.95-3.95 8.5-27.2 8.95-27.2 8.95 0 5.05 0ZM51.3 0L47.4 0 47.4-31.4 51.3-31.4 51.3 0ZM61.35 0L61.35-31.4 66-31.4 81.95-5.55 81.59-5.55 81.59-31.4 85.5-31.4 85.5 0 81.15 0 64.65-26.7 65.25-26.7 65.25 0 61.35 0ZM99.49 0L95.59 0 95.59-31.4 114.69-31.4 114.69-28.05 99.49-28.05 99.49-17.6 113.64-17.6 113.64-14.25 99.49-14.25 99.49 0ZM132.69 0.6L132.69 0.6Q128.54 0.6 125.54-1.49 122.54-3.58 120.92-7.29 119.29-11 119.29-15.9L119.29-15.9Q119.29-21.13 121.05-24.7 122.82-28.28 125.85-30.11 128.89-31.95 132.69-31.95L132.69-31.95Q137.72-31.95 140.78-29.44 143.84-26.93 144.99-22.9L144.99-22.9 140.79-22.05Q139.82-24.98 137.68-26.71 135.54-28.45 132.69-28.45L132.69-28.45Q130.22-28.45 128.13-27.04 126.04-25.63 124.77-22.83 123.49-20.03 123.49-15.9L123.49-15.9Q123.49-12.15 124.5-9.22 125.52-6.3 127.55-4.63 129.59-2.95 132.69-2.95L132.69-2.95Q136.42-2.95 138.6-4.95 140.79-6.95 140.79-10.2L140.79-10.2 145.04-10.2Q145.04-6.83 143.49-4.41 141.94-2 139.15-0.7 136.37 0.6 132.69 0.6ZM163.54 0.6L163.54 0.6Q159.64 0.6 156.56-1.2 153.49-3 151.71-6.61 149.94-10.23 149.94-15.65L149.94-15.65Q149.94-21.15 151.71-24.76 153.49-28.38 156.56-30.16 159.64-31.95 163.54-31.95L163.54-31.95Q167.44-31.95 170.51-30.15 173.59-28.35 175.36-24.73 177.14-21.1 177.14-15.65L177.14-15.65Q177.14-10.18 175.36-6.56 173.59-2.95 170.51-1.18 167.44 0.6 163.54 0.6ZM163.54-3L163.54-3Q167.96-3 170.53-6.23 173.09-9.45 173.09-15.7L173.09-15.7Q173.09-21.83 170.53-25.14 167.96-28.45 163.54-28.45L163.54-28.45Q159.16-28.45 156.58-25.13 153.99-21.8 153.99-15.65L153.99-15.65Q153.99-9.43 156.58-6.21 159.16-3 163.54-3ZM184.71 0L184.71-31.4 190.31-31.4 201.11-9.7 200.71-9.7 211.51-31.4 216.96-31.4 216.96 0 213.01 0 213.01-27.35 213.71-27.35 202.21-3.95 199.61-3.95 188.16-27.2 188.61-27.2 188.61 0 184.71 0ZM227.06 0L227.06-31.4 232.66-31.4 243.46-9.7 243.06-9.7 253.86-31.4 259.31-31.4 259.31 0 255.36 0 255.36-27.35 256.06-27.35 244.56-3.95 241.96-3.95 230.51-27.2 230.96-27.2 230.96 0 227.06 0ZM288.71 0L269.36 0 269.36-31.4 288.71-31.4 288.71-28.05 273.25-28.05 273.25-17.5 287.81-17.5 287.81-14.15 273.25-14.15 273.25-3.4 288.71-3.4 288.71 0ZM301.4 0L297.5 0 297.5-31.4 308.45-31.4Q313.83-31.4 316.59-28.84 319.35-26.28 319.35-22.1L319.35-22.1Q319.35-17.98 316.59-15.41 313.83-12.85 308.45-12.85L308.45-12.85 301.4-12.85 301.4 0ZM320.15 0L315.1 0 306.1-14.25 310.35-14.25 320.15 0ZM301.4-28.05L301.4-15.6 308.15-15.6Q311.68-15.6 313.52-17.34 315.35-19.07 315.35-21.85L315.35-21.85Q315.35-24.7 313.59-26.38 311.83-28.05 308.45-28.05L308.45-28.05 301.4-28.05ZM339.03 0.6L339.03 0.6Q334.88 0.6 331.88-1.49 328.88-3.58 327.25-7.29 325.63-11 325.63-15.9L325.63-15.9Q325.63-21.13 327.39-24.7 329.15-28.28 332.19-30.11 335.23-31.95 339.03-31.95L339.03-31.95Q344.05-31.95 347.11-29.44 350.18-26.93 351.33-22.9L351.33-22.9 347.13-22.05Q346.15-24.98 344.01-26.71 341.88-28.45 339.03-28.45L339.03-28.45Q336.55-28.45 334.46-27.04 332.38-25.63 331.1-22.83 329.83-20.03 329.83-15.9L329.83-15.9Q329.83-12.15 330.84-9.22 331.85-6.3 333.89-4.63 335.93-2.95 339.03-2.95L339.03-2.95Q342.75-2.95 344.94-4.95 347.13-6.95 347.13-10.2L347.13-10.2 351.38-10.2Q351.38-6.83 349.83-4.41 348.28-2 345.49-0.7 342.7 0.6 339.03 0.6ZM378.07 0L358.72 0 358.72-31.4 378.07-31.4 378.07-28.05 362.62-28.05 362.62-17.5 377.17-17.5 377.17-14.15 362.62-14.15 362.62-3.4 378.07-3.4 378.07 0Z" opacity="1" transform="matrix(1,0,0,1,0,0)" fill="#000000" class="undefined-text-0" data-fill-palette-color="quaternary" id="text-0"></path></svg></g></svg></g></svg></g></svg></g></svg></g><defs></defs></svg><rect width="395.52" height="77.6060892641737" fill="none" stroke="none" visibility="hidden"></rect></g></svg></g></svg>